Coordinates
version=1
nRows=11
nColumns=40
inDegrees=yes

Units are S.I. units (second, meters, Newtons, ...)
Angles are in degrees.

endheader
time	pelvis_tilt	pelvis_list	pelvis_rotation	pelvis_tx	pelvis_ty	pelvis_tz	hip_flexion_r	hip_adduction_r	hip_rotation_r	knee_angle_r	knee_angle_r_beta	ankle_angle_r	subtalar_angle_r	mtp_angle_r	hip_flexion_l	hip_adduction_l	hip_rotation_l	knee_angle_l	knee_angle_l_beta	ankle_angle_l	subtalar_angle_l	mtp_angle_l	lumbar_extension	lumbar_bending	lumbar_rotation	arm_flex_r	arm_add_r	arm_rot_r	elbow_flex_r	pro_sup_r	wrist_flex_r	wrist_dev_r	arm_flex_l	arm_add_l	arm_rot_l	elbow_flex_l	pro_sup_l	wrist_flex_l	wrist_dev_l
     16.05000000	     -3.90306003	     -4.74449150	     -1.91269845	      0.99220983	      0.92253659	      0.53768249	     15.88729013	      4.89745753	    -11.59218030	     24.39228552	     24.39228552	     13.78461961	     -4.75650334	     -0.94105233	     19.82709906	    -14.11365604	     -1.06853365	     61.42442276	     61.42442276	     11.39687598	    -18.69064315	     12.67133655	     -9.97615095	      7.15372158	     -0.16444869	      7.53877049	    -17.50977199	    -12.93587958	     34.84465826	     46.16718202	      0.00000000	      0.00000000	     17.21660649	    -11.44625560	     -4.49282562	     35.08802303	     46.25564926	      0.00000000	      0.00000000
     16.06892857	     -3.63379535	     -4.55063625	     -1.20452442	      0.99121459	      0.92116115	      0.53924059	     15.86074086	      4.80673712	    -11.26376342	     25.48783307	     25.48783307	     14.43821110	     -6.43732916	     -1.06145031	     21.65452823	    -14.02116416	     -0.56184432	     62.30258795	     62.30258795	     12.03713163	    -19.04845922	     13.55223635	    -10.11567172	      6.82447622	     -0.03163469	      9.66678117	    -17.50104889	    -12.99339448	     35.70896120	     46.14977214	      0.00000000	      0.00000000	     15.00261448	    -10.74162479	     -4.11092856	     33.34641908	     46.17441661	      0.00000000	      0.00000000
     16.08785714	     -3.28558763	     -4.41401374	     -0.44195565	      0.99026196	      0.91998058	      0.54075056	     15.61556906	      4.84858064	    -10.88195736	     26.33325379	     26.33325379	     14.98786983	     -8.32327628	     -0.94785363	     23.38901834	    -13.90154447	      0.00219394	     62.93095936	     62.93095936	     13.09259245	    -19.26780512	     15.61255715	    -10.34281930	      6.56589923	     -0.15208091	     12.02563300	    -17.44997965	    -13.04649681	     36.75280307	     46.12518185	      0.00000000	      0.00000000	     12.64744862	    -10.11382519	     -3.54599958	     31.37879930	     46.06793463	      0.00000000	      0.00000000
     16.10678571	     -2.77652321	     -4.33954113	      0.30457896	      0.98946450	      0.91912694	      0.54210130	     15.01285125	      4.84373042	    -11.01319855	     26.92305874	     26.92305874	     15.62045293	     -9.07679195	     -1.10879297	     24.74866719	    -13.89267400	      0.35457941	     63.00828964	     63.00828964	     13.55540104	    -19.40592507	     15.98854112	    -10.80297577	      6.37443838	      0.80312487	     13.74705933	    -18.06488914	    -13.14613995	     37.44851329	     46.11635129	      0.00000000	      0.00000000	     10.60322649	     -9.12808627	     -3.31643002	     30.44215639	     46.00321972	      0.00000000	      0.00000000
     16.12571429	     -2.58616970	     -4.19631468	      1.13743298	      0.98819602	      0.91785549	      0.54318230	     14.92918557	      4.89691009	    -10.64499282	     27.71347489	     27.71347489	     16.17785784	    -11.02693360	     -0.51081553	     26.61726073	    -13.51679518	      1.02598677	     63.02297374	     63.02297374	     15.49639898	    -19.45309298	     20.94569919	    -10.90621524	      6.16006781	      0.32202877	     16.34774619	    -17.84653740	    -13.10838658	     38.76105342	     46.07147458	      0.00000000	      0.00000000	      8.27546083	     -8.92648732	     -2.01618728	     28.16027173	     45.79385449	      0.00000000	      0.00000000
     16.14464286	     -2.35340873	     -4.06245859	      1.96052045	      0.98697214	      0.91689632	      0.54405992	     14.65307309	      4.83755487	    -10.75908090	     28.28776077	     28.28776077	     16.72483848	    -12.00103006	     -0.45985342	     28.06344789	    -13.23411334	      1.36365223	     62.15022786	     62.15022786	     15.80938982	    -19.50547873	     21.39058964	    -11.06277629	      5.97057392	      0.39410726	     18.50122821	    -17.94929321	    -13.24254395	     40.18305881	     46.03482271	      0.00000000	      0.00000000	      6.01119244	     -8.48195280	     -1.55557970	     27.00801823	     45.69017422	      0.00000000	      0.00000000
     16.16357143	     -2.17759987	     -3.95107536	      2.77227729	      0.98568241	      0.91634893	      0.54461060	     14.23945855	      4.76543850	    -11.08689806	     28.47074326	     28.47074326	     17.10610553	    -12.56396374	     -0.47214961	     29.32440611	    -12.87159273	      1.63681609	     60.64181494	     60.64181494	     15.97253243	    -19.53366725	     21.55083121	    -11.18640951	      5.76646580	      1.20164681	     20.19593859	    -18.66232731	    -13.39841787	     41.03004535	     46.02239132	      0.00000000	      0.00000000	      4.13352508	     -7.87171330	     -1.41138848	     26.28685617	     45.63486271	      0.00000000	      0.00000000
     16.18250000	     -2.10154107	     -3.77305791	      3.62957385	      0.98413292	      0.91601934	      0.54486052	     13.92206925	      4.64885730	    -11.27056941	     28.59554672	     28.59554672	     17.43213967	    -13.40521177	     -0.23905813	     30.49079645	    -12.28895098	      1.92070415	     58.58019630	     58.58019630	     16.01331364	    -19.53291292	     21.83011506	    -11.25059277	      5.54935014	      0.61667066	     22.58556356	    -18.22646945	    -13.54847906	     43.21033814	     45.95836322	      0.00000000	      0.00000000	      1.74345837	     -7.74163282	     -0.99593105	     25.20275858	     45.52590520	      0.00000000	      0.00000000
     16.20142857	     -2.18548452	     -3.60517612	      4.45942798	      0.98241701	      0.91602009	      0.54469765	     13.59372299	      4.46525197	    -11.69298500	     28.36455757	     28.36455757	     17.63586821	    -13.70883987	     -0.12324340	     31.56151636	    -11.56497321	      2.22307498	     55.95875220	     55.95875220	     15.82619809	    -19.50823907	     21.89083809	    -11.12079691	      5.36433067	      1.20044141	     24.40016481	    -18.86048174	    -13.72203622	     44.40475076	     45.93312877	      0.00000000	      0.00000000	     -0.04274679	     -7.35488397	     -0.83468953	     24.68844446	     45.46470017	      0.00000000	      0.00000000
     16.22035714	     -2.36602628	     -3.52998270	      5.25392491	      0.98048359	      0.91623846	      0.54440476	     13.35456735	      4.35196328	    -12.20982038	     28.06780477	     28.06780477	     17.78089954	    -13.90116086	     -0.03148421	     32.49224356	    -10.84119433	      2.58505836	     52.84855987	     52.84855987	     15.49240157	    -19.42402675	     21.95082282	    -10.93375179	      5.22798149	      1.75009859	     26.22935711	    -19.45958154	    -13.88572686	     45.58776503	     45.90805565	      0.00000000	      0.00000000	     -1.69179275	     -7.09885339	     -0.73196306	     24.21771813	     45.41528618	      0.00000000	      0.00000000
     16.23928571	     -2.40298919	     -3.28614952	      6.08171012	      0.97869186	      0.91721891	      0.54378913	     12.67061171	      4.07814541	    -12.81135020	     27.30792798	     27.30792798	     17.99200696	    -13.68361612	      0.36743960	     32.75932727	     -9.92531918	      2.80589230	     48.95290854	     48.95290854	     13.62945052	    -19.32927645	     18.20032963	    -11.08274549	      4.99890649	      1.22848236	     27.47156089	    -18.99323521	    -14.05193663	     51.06958486	     45.71056423	      0.00000000	      0.00000000	     -4.63189676	     -7.49526293	      1.63394907	     25.94446009	     44.93234144	      0.00000000	      0.00000000
